<svg width="321" height="362" viewBox="0 0 321 362" fill="none" xmlns="http://www.w3.org/2000/svg">
<path d="M-41.234 88.7875H46.5762L2.67215 164.837L-41.234 88.7875Z" fill="#E42032"/>
<path d="M13.6527 183.85H101.463L57.5568 259.901L13.6527 183.85Z" fill="#E42032"/>
<path d="M211.23 183.85L167.326 259.901L123.414 183.85H211.23Z" fill="#E42032"/>
<path d="M266.117 266.238H178.301L222.211 190.189L266.117 266.238Z" fill="#E42032"/>
<path d="M68.5375 266.238L112.444 190.189L156.348 266.238H68.5375Z" fill="#E42032"/>
<path d="M2.67215 190.189L46.5762 266.238H-41.234L2.67215 190.189Z" fill="#E42032"/>
<path d="M2.67215 0.0600891L46.5762 76.1115H-41.234L2.67215 0.0600891Z" fill="#E42032"/>
<path d="M-41.234 278.914H46.5762L2.67215 354.963L-41.234 278.914Z" fill="#E42032"/>
<path d="M156.348 278.914L112.444 354.963L68.5375 278.914H156.348Z" fill="#FFB41D"/>
<path d="M222.211 354.963L178.301 278.914H266.117L222.211 354.963Z" fill="#E42032"/>
<path d="M321 361.302H233.184L277.09 285.251L321 361.302Z" fill="#E42032"/>
<path d="M101.463 361.302H13.6527L57.5568 285.251L101.463 361.302Z" fill="#E42032"/>
</svg>
